<?xml version="1.0" encoding="utf-8"?>
<!-- Generator: Adobe Illustrator 23.0.3, SVG Export Plug-In . SVG Version: 6.00 Build 0)  -->
<svg version="1.1" id="Layer_1" xmlns="http://www.w3.org/2000/svg" xmlns:xlink="http://www.w3.org/1999/xlink" x="0px" y="0px"
	 viewBox="0 0 640 480" style="enable-background:new 0 0 640 480;" xml:space="preserve">
<style type="text/css">
	.st0{fill:none;stroke:#000000;stroke-miterlimit:10;}
	.st1{fill:none;stroke:#000000;stroke-width:1.4;stroke-miterlimit:10;}
	.st2{fill:none;stroke:#000000;stroke-width:1.0003;stroke-miterlimit:10;}
	.st3{fill:#FFFFFF;stroke:#000000;stroke-miterlimit:10;}
</style>
<g>
	<path class="st0" d="M164.66,338.67C146.51,310.15,136,276.31,136,240c0-101.62,82.38-184,184-184
		c55.81,0,105.82,24.85,139.56,64.09"/>
	<path class="st0" d="M472.38,136.83C492.34,166.25,504,201.76,504,240c0,101.62-82.38,184-184,184
		c-57.6,0-109.02-26.47-142.76-67.9"/>
	<path class="st1" d="M165.67,339.67C83.13,404.19,29.72,449.9,33.07,454.42c5.06,6.83,138.08-83.18,297.1-201.05
		S613.99,34.42,608.93,27.58c-3.35-4.52-62.63,33.3-148.37,93.5"/>
	<path class="st2" d="M169.52,345.48c-63.11,48.79-103.26,81.86-101.48,84.26c2.94,3.96,118.76-76.91,258.7-180.63
		s251-191.02,248.06-194.99c-1.78-2.4-44.94,26.3-109.78,72.34"/>
	<path class="st3" d="M177.24,356.1c-4.52-5.55-8.72-11.37-12.58-17.43"/>
	<path class="st3" d="M459.56,120.09c4.58,5.32,8.86,10.91,12.81,16.74"/>
</g>
</svg>
